<?xml version="1.0" encoding="utf-8"?>
<!-- Generator: Adobe Illustrator 19.2.1, SVG Export Plug-In . SVG Version: 6.00 Build 0)  -->
<svg version="1.1" id="Layer_1" xmlns="http://www.w3.org/2000/svg" xmlns:xlink="http://www.w3.org/1999/xlink" x="0px" y="0px"
	 viewBox="0 0 360 247.5" style="enable-background:new 0 0 360 247.5;" xml:space="preserve">
<style type="text/css">
	.st0{fill:#D3D3D3;}
</style>
<g id="mail">
	<path class="st0" d="M354.8,225.7c2.8,3,5.2,2.1,5.2-2v-198c0-4.1-2.6-5.3-5.7-2.6L254,108.3c-3.1,2.7-3.4,7.3-0.6,10.3
		L354.8,225.7z"/>
	<path class="st0" d="M340.9,4.9c3.1-2.7,2.3-4.9-1.8-4.9H18.3c-4.1,0-4.9,2.2-1.7,4.8L174.2,137c3.2,2.6,8.3,2.6,11.5,0L340.9,4.9z
		"/>
	<path class="st0" d="M0,223.6c0,4.1,2.3,5,5.2,2l101-106.6c2.8-3,2.6-7.6-0.6-10.3L5.8,25.1C2.6,22.4,0,23.7,0,27.8
		C0,27.8,0,223.6,0,223.6z"/>
	<path class="st0" d="M193,160.3c-3.1,2.7-7.8,6.1-10.4,7.5c0,0,0,0-2.6,0c-2.6,0-2.6,0-2.6,0c-2.6-1.5-7.2-4.8-10.4-7.5l-32.7-27.4
		c-3.2-2.7-8.1-2.4-10.9,0.6L20.7,242c-2.8,3-1.8,5.5,2.3,5.5h314c4.1,0,5.2-2.5,2.3-5.5L236.3,133.3c-2.8-3-7.7-3.3-10.9-0.6
		L193,160.3z"/>
</g>
</svg>
