<?xml version="1.0" encoding="utf-8"?>
<!-- Generator: Adobe Illustrator 23.0.2, SVG Export Plug-In . SVG Version: 6.00 Build 0)  -->
<svg version="1.1" id="Layer_1" xmlns="http://www.w3.org/2000/svg" xmlns:xlink="http://www.w3.org/1999/xlink" x="0px" y="0px"
	 viewBox="0 0 235.5 133.9" style="enable-background:new 0 0 235.5 133.9;" xml:space="preserve">
<style type="text/css">
	.st0{fill:#FFFFFF;}
	.st1{fill:none;stroke:#FFFFFF;stroke-width:0.75;stroke-miterlimit:10;}
	.st2{fill:none;stroke:#FFFFFF;stroke-miterlimit:10;}
</style>
<title>12Asset 1</title>
<g>
	<g id="Layer_1-2">
		<path class="st0" d="M27.1,60.5L7.1,9h47.1L34.1,60.5H27.1z"/>
		<path class="st0" d="M61.5,60.5V9h6.8v51.5H61.5z"/>
		<path class="st0" d="M80.3,60.5V9h7l27.1,40.5V9h6.5v51.5H80.3z"/>
		<path class="st0" d="M132.3,60.5V9h40.6v51.5h-7L138.8,20v40.5L132.3,60.5z"/>
		<path class="st0" d="M198.9,60.5V38.7L179,9h47.2l-20.6,29.7v21.8H198.9z"/>
		<path class="st1" d="M18.6,73.9h37.3l-18.8,51.6h-7.4L10.9,73.9H18.6z"/>
		<path class="st1" d="M64.1,73.9h7.1v51.6h-7.1V73.9z"/>
		<path class="st1" d="M82.5,73.9h40.7v51.6h-7.9L89.2,83.8v41.7h-6.7V73.9z"/>
		<path class="st1" d="M134.5,73.9h8.2l25.8,41.7V73.9h6.7v51.6h-40.7V73.9z"/>
		<path class="st1" d="M182.5,73.9h46.1l-19.6,30.8v20.8h-7v-20.8L182.5,73.9z"/>
		<rect x="0.5" y="0.5" class="st2" width="234.5" height="132.9"/>
	</g>
</g>
</svg>
